<?xml version="1.0" encoding="utf-8"?>
<!-- Generator: Adobe Illustrator 24.1.0, SVG Export Plug-In . SVG Version: 6.00 Build 0)  -->
<svg version="1.1" id="Layer_1" xmlns="http://www.w3.org/2000/svg" xmlns:xlink="http://www.w3.org/1999/xlink" x="0px" y="0px"
	 viewBox="0 0 432.6 190" style="enable-background:new 0 0 432.6 190;" xml:space="preserve">
<style type="text/css">
	.st0{fill:#533724;stroke:#669900;stroke-miterlimit:10;}
	.st1{fill:#533724;stroke:#669966;stroke-miterlimit:10;}
</style>
<g id="_x23_000000ff">
	<path class="st0" d="M102.5,30.4c-13.8-8.6-2.9-27,9.9-29.4c-11,7.1-10.9,25.5,4.2,26.9c1.6-0.1,3.2-0.1,4.8,0
		c0.4-0.2,1.1-0.7,1.4-1c0.4,0.4,1.3,1.1,1.7,1.5c2.7-0.2,5.6-0.2,8-1.8c2-0.2,4-0.2,6-0.3c7,4.8,19.4-3.3,17.6-12.2
		c-0.2-5.6-5-9-8-13.2c8.4,2.5,16.2,10,16.4,19.1c-1.3,8.3-9.8,12.5-16.9,15c7.7-3.2,15.4,1.5,18.3,8.9c-5.6,3.4-13.1,4.8-17.4-1.2
		c0.4,5.4,3,10.3,6.9,13.9c-0.2,0.3-0.5,0.9-0.7,1.1c0.8,0.5,1.6,1,2.5,1.5c1,1.1,2.1,2.3,3,3.5c10.1,11.9,27.2,14.9,42,14.4
		c2.1-4.1,5.9-7,10.8-6.2c-0.1-0.8-0.1-2.2-0.2-3c-11-6-21.8-12-27.1-23.8c-3.5,0.4-7.1,0.5-10.6,0.4c2-3.7,4.6-7.1,7.7-10
		c-1.5-2.9-2.4-6.1-1.3-9.2c1.2,0.6,2.3,1.1,3.4,1.7c0-0.9,0-2.6,0-3.5c0.9,0.7,1.8,1.4,2.6,2.2c-0.1-1.7-0.3-3.5-0.4-5.2
		c9.9,13.5,27.5,13.3,41.6,7.7c1.1-4.2-0.7-8.5-0.4-12.8c-1.9-0.8-3.8-1.6-5.7-2.4c0.2-1.5,0.3-3.1,0.5-4.6c1.1-0.1,2.2-0.2,3.3-0.3
		c1.3-2,2.8-3.7,4.5-5.3c1.1,0.3,1.5,0.4,2.6,0.8c0.5,1.6,1,3.1,1.5,4.7c1,0,2.1,0,3.1,0c0.6,4.1,2.2,7.9,3.9,11.7
		c1.3,0.6,2.6,1.1,3.9,1.7c-1.1,1.2-2.1,2.4-3.2,3.6c3.4,17.8-6.8,33.4-21,42.9c6.8-0.4,13.6-3.3,19.9,1.2
		c19.7,10.9,50.2,1,51.5-23.8c-5.7-0.6-11.3-3.2-14.1-8.5c5.2-0.1,10.2,1.3,14.8,3.7c-1.7-5.8-1.8-12.7,2.6-17.3
		c-5.4,11.9,7.9,21.4,18.4,15.9c7.4-3.7,2.2-12.1-1.3-16.7c6.5,2.6,9.5,9.5,10,16.1c3.4-4.7,9.1-6.6,14.7-5.4c-2.8,5-8,7.8-13.3,9.5
		c6.4,14.6,11.5,32.1,25.1,41.5c-0.8,6.9-4.7,13.4-11.3,16.2c2.5,2,4.9,4.3,6.5,7.2c-4-1.7-7.1-4.7-10.4-7.3c2.4,4,5.4,7.6,7.1,12
		c-4-4-6.8-9-10.2-13.4c1.6,4.6,3.8,9.1,4.2,14c-3-3.4-4.5-7.7-6.3-11.8c-3.3,1.5-6.5,0.3-9.5-1.2c-2.3,8.7-6.1,17-11,24.6
		c12.1-2.9,25.5,12.3,35.5,1.4c-0.7-3.7-1.5-7.4-2.7-11c2.8-1,5.6-2.1,8.3-3.3c0.8,4.7,6.4,11.4,10.3,5.4c3.1-5.2,8.8-4.2,12.3,0.1
		c-0.2,3-0.8,5.9-1.7,8.8c-1.6-1.5-3.1-3-4.7-4.4c1.9,6.6,1.3,14.3,6.2,19.6c0.7,0.1,2,0.2,2.7,0.2c0.5,1,1,2,1.6,2.9
		c-1.6,3.4-4.1,6.3-7.2,8.3c-1-0.5-2-1.1-3.1-1.6c-1.5,0.5-3.1,1.1-4.6,1.6c-7.7,5.6-11.1,14-11.7,23.4c2.7-1.3,3.6-4.1,4.5-6.7
		c-0.2,2.3-0.3,4.6-0.4,7c1.9-2.8,3.4-5.8,5.2-8.7c-0.7,3.1-1.8,6.2-2.8,9.3c1.7-2.1,3.4-4.2,5.1-6.3c-0.8,2.1-1.6,4.2-2.3,6.3
		c2.2-3,3.9-6.2,5.8-9.4c-0.7,2.6-1.5,5.2-2.1,7.9c1.9-2.4,3.5-4.9,5.3-7.3c-1.2,3.2-2.7,6.2-4.3,9.1c0.7,0,2.1,0,2.7,0
		c0.7-1.9,1.4-3.8,2.2-5.6c-0.1,2.3-0.2,4.5-0.2,6.8c2-3.1,3.6-6.4,5.5-9.6c-0.8,3.4-2,6.7-3.3,9.9c0.9-0.8,1.7-1.7,2.6-2.5l0.1,0.3
		c0,2.7,3.7,0.4,2.2-1c-0.6,0.3-1.7,0.8-2.2,1c1.1-1.7,1.7-3.9,3-5.4c-0.1,1-0.4,3-0.5,4c1.5-2,2.8-4.1,4.1-6.2
		c-1.1,3.4-2.5,6.7-3.6,10.1c2.3-2.9,4.3-6.1,6.5-9.1c-1.2,3.3-2.8,6.4-4.4,9.5c0.7,0.1,2.1,0.2,2.8,0.2c0.7-1.9,1.4-3.7,2.1-5.6
		c-0.2,2.3-0.5,4.6-0.6,7c2.3-3,4.1-6.5,5.8-9.9c-0.9,3.3-1.9,6.5-2.8,9.8c1.8-2.1,3.4-4.2,5.1-6.4c-0.3,1-0.9,2.9-1.2,3.8l3.2-2.6
		c-0.8,2-1.6,4.1-2.3,6.1c0.6-0.8,1.7-2.3,2.3-3.1c1.2,0.9,0.7,2.6,1.1,3.9c2-2.1,4.8-7.1-0.1-4.1c0.5-1.9,1.4-3.6,2.6-5.1
		c-0.1,0.8-0.4,2.5-0.5,3.4c1.5-0.6,2.6-1.5,2.9-3.2c-0.5,2.8-1.1,5.7-1.6,8.5c2.4-3.6,4.3-7.6,6.4-11.3c-1,4-2.5,7.8-4,11.6
		c2.1-2.6,4.1-5.3,5.9-8.1c-0.1,1.1-0.4,3.2-0.5,4.3c1.5-2.5,3-5.1,4.5-7.7c-1,3-2,6.1-2.9,9.1c1.9-2.3,3.6-4.8,5.4-7.1
		c-1.5,4.2-4,8-5.8,12.1c2.3-1.6,3.8-3.9,5.4-6.2c-0.4,1.7-0.9,3.3-1.3,5l1.3-2c1.7,0.9,0.9,2.6,0,3.8c0.6-0.7,1.3-1.5,1.9-2.2
		c-0.1-1.4-0.2-2.8-0.3-4.2c1.1,0.5,2.2,0.8,3.3,1.1c-0.5,0-1.6,0-2.1,0c2.1,1.4-0.5,3.9-0.4,5.8c1.9-2.1,3.7-4.2,5.7-6.3
		c-1.2,2.3-2.4,4.5-3.6,6.8c1.8-1.2,3.5-2.4,5.2-3.5c-1,1.3-2,2.5-2.9,3.8c3.2,0.7,6.4,1.3,9.6,2.1c-141.5,0.5-283,0.5-424.4,0
		c3.4-0.8,6.8-1.5,10.3-2.2c-1.1-1.2-2.2-2.4-3.4-3.6c2.1,1.2,4.2,2.4,6.4,3.5c-0.9-1.9-1.8-3.8-2.7-5.7c1.8,1.7,3.6,3.4,5.4,5
		c-0.1-1-0.2-3-0.3-4c0.9,1.2,1.9,2.4,2.8,3.6c-0.4-1.6-0.8-3.2-1.2-4.7c1.2,1.4,2.3,2.7,3.5,4.1c-0.1-1-0.3-2.9-0.4-3.9
		c1.3,1.3,2.4,2.6,3.6,3.9c-0.5-1.8-1.1-3.5-1.7-5.2c1.5,1.4,3,2.7,4.5,4c-0.7-2.4-1.5-4.7-2.2-7c1.6,2.2,3.2,4.6,4.7,6.9
		c0.1-1.1,0.1-3.3,0.2-4.4c0.8,1.2,1.5,2.3,2.3,3.5c-0.4-2-0.9-4.1-1.3-6.1c1.4,2,2.7,4.1,4.1,6.1c-0.3-2.3-0.6-4.5-0.9-6.8
		c0.8,1.7,1.6,3.4,2.3,5.2c0.6,0.1,1.7,0.2,2.2,0.3c-0.5-1.3-1-2.7-1.5-4c1.3,1.2,2.6,2.4,3.9,3.6c-0.4-2.1-0.8-4.2-1.1-6.4
		c1.3,2.1,2.6,4.2,3.8,6.3c0-1.8,0-3.6,0-5.3c0.5,0.7,1.6,2.2,2.1,3c0-1.2,0-3.4,0-4.6c1,2,2,4,3,6c0.1-2.1,0.1-4.2,0.2-6.3
		c0.7,1.8,1.4,3.6,2.1,5.4c1.2-0.2,2.3-0.5,3.5-0.7c-1.9-2.3-3.7-4.6-5.2-7.1c-1.9,0.5-1.7,0.4-3.6,0.9l-0.1,2
		c-7.3-5.2-12.4-13.3-11.6-22.9c0.3-0.3,1-0.9,1.3-1.2c-0.8-1.7-1.5-3.3-2.2-5c1.2,0.5,2.3,1,3.5,1.5c3.4-3.1,7.3-5.6,11.3-8
		c-0.7,1.2-1.4,2.3-2.2,3.5c0.5,0,1.4,0.1,1.9,0.1l-0.1-1.1l1.2,0.3c-0.4,0.4-1,1.2-1.4,1.6c1.5,3.7,1.7,7.8,1.3,11.8
		c2.5-0.4,5-0.6,7.5-0.6c-0.7,1.3-1.4,2.6-2.1,3.8c0.5,1.4,0.9,2.8,1.4,4.1c1.3-0.9,2.5-1.8,3.8-2.7c0,0.3,0,1,0,1.4
		c1-0.5,2.1-1,3.1-1.4c-0.6,6.6-5.4,11.9-11.7,13.7c2.1,1.9,4.3,3.7,6.6,5.3c-0.7-2.1-1.5-4.2-2.2-6.3c1.7,1.9,3.3,3.8,5,5.7
		c-0.1-1.2-0.2-3.5-0.2-4.7c0.9,1.5,1.9,3,2.8,4.6c-0.1-1.2-0.4-3.5-0.6-4.6c0.7,0.9,2.1,2.8,2.8,3.7c-0.1-1.6-0.1-3.2-0.2-4.8
		c1,1.9,2.2,3.7,4.1,4.8c-0.7-2.1-1.5-4.1-2.3-6.2c1.5,1.7,3,3.4,4.5,5.1c-0.7-2.7-1.4-5.3-2.2-8c1.7,2.6,3.3,5.3,4.9,8
		c-0.2-2.3-0.5-4.5-0.7-6.8c1.2,2.1,2,4.4,3.1,6.6c-0.3-2.3-0.7-4.7-1-7c1.3,2.1,2.4,4.3,3.6,6.5c-0.2-2.5-0.4-4.9-0.7-7.4
		c1.1,2.6,2.2,5.2,3.5,7.7c-0.5-4.2-1.4-8.3-2.3-12.5c-5.4-4-7-10.9-9.2-16.8c-1-0.1-2.1-0.3-3.1-0.4c-2.2-7.7-1.1-15.8-2.6-23.6
		c-1,1.5-1.9,3.1-2.8,4.6c1,4.3,1.3,8.8,0.9,13.2c-0.5-1.6-0.8-3.2-1.2-4.8l-0.7-0.1c-0.5,2,1,5.4-0.7,6.4c-0.1-1.2-0.3-3.5-0.4-4.7
		c-0.5,1.6-1,3.1-1.4,4.7c-0.3-2.2-0.5-4.4-0.8-6.6c-0.4,2-0.7,4-1.1,6c-1-5.5-1-11.7-5.4-15.9c2.3-6.7,2.4-13.8,4.4-20.6
		c-3.4-1.1-6.1-3.3-7.7-6.5c3.5-0.3,7,0,9.8,2.3c-0.6-9.8,2.7-20.5,10.6-26.8c-4,7.9-8.2,16.5-5.5,25.5l0.6,0.1
		c-0.1-1.5-0.1-3.1-0.2-4.6c1.1,0.1,2.2,0.2,3.2,0.3c0.3-0.5,0.9-1.6,1.2-2.1c0.5,2.3,1,4.6,1.7,6.9c2.4-9.1,4.3-18.9,10.7-26.1
		c-2,9.4-5,18.6-6.1,28.2c3.3-1.8,7-2.1,10.7-1.4c-0.8,1.1-1.7,2.2-2.5,3.2c0.5,2,0.2,3.8-1.7,5c0.2-1,0.6-3,0.8-4
		c-0.5,0.1-1.6,0.3-2.1,0.4c0.2,0.9,0.7,2.7,0.9,3.7c-0.5-0.9-1.5-2.6-2-3.5c-0.6,0-1.9,0-2.5,0c-3.8,7.9,1.9,17.9,10.6,18.7
		c9.4,0.6,18.7-2,27.7-4.3c-5.6-12.6-6.8-26.7-6.5-40.3c-3.4-0.1-6.6-1.1-8.8-3.7c-4.4-0.2-8.3-4.3-5.4-8.6c5.1-7.9,6.7-17,8.4-26.1
		c-4.6,0.3-9-1.2-13-3.3C95.7,34.8,98.5,31.6,102.5,30.4 M144.5,35C144.6,38.4,147.5,33.5,144.5,35 M214.4,67.9
		C212.8,70.9,217.8,68.1,214.4,67.9 M165.3,137.3c0.5,10.9-6.8,20.1-6.2,30.8c0.9-2.1,1.8-4.3,2.6-6.4c0,1.9-0.1,3.8-0.1,5.7
		c0.6,0,1.9-0.1,2.6-0.1c0.1-2.1,0.1-4.1,0.2-6.2c0.9,2.1,1.7,4.3,2.6,6.5c1.1-3.1,1.9-6.2,3-9.3c0,2.9-0.1,5.8-0.2,8.6
		c1.1-1.5,2.1-3,3.2-4.5c-0.1,1.3-0.4,3.8-0.5,5.1c1.2-2.7,2.4-5.4,3.5-8.1c0,1.9,0,3.8,0.1,5.7c1.1-1.6,2.2-3.1,3.3-4.7
		c-0.7,2.2-1.6,4.4-2.4,6.6c1.2-0.1,2.4-0.2,3.7-0.3c0.3-1.7,0.6-3.4,1-5.1c0.4,1.9,0.8,3.8,1.2,5.7c1.4-2.8,2.7-5.7,4-8.6
		c-0.4,2.8-0.9,5.6-1.4,8.3c0.9-1,2.6-3,3.5-4.1c-0.1,1.1-0.4,3.3-0.5,4.4c1.4-2.9,2.8-5.8,4.2-8.7c-0.5,2.7-1.1,5.5-1.6,8.2
		c1.8-2.6,3.4-5.3,4.9-8.1c-0.9,2.7-1.7,5.5-2.2,8.3c2.2-1.5,3.3-3.9,4.2-6.3c0.1,2,0.1,4,0.3,6c4.4-5.4-0.9-12.4,2.5-18.2
		c4.2-8.2-5.3-13.6-8.9-19.9C182.8,130.8,174.4,134.9,165.3,137.3 M142,138.4c2.3,10.9-5.3,20.2-6.4,30.9c1-2.2,1.8-4.6,2.7-6.8
		c0,2.4,0,4.8,0.1,7.1c1.3-2.3,2.5-4.7,3.7-7.1c-0.3,2.3-0.6,4.6-0.8,7c1.1-2.7,1.9-5.4,2.7-8.1c0.1,2.4,0.2,4.9,0.3,7.3
		c1-2,2-4,3.1-6c-0.2,2.2-0.4,4.4-0.6,6.5c0.7-0.8,2-2.4,2.7-3.3c2.5,5.7,2.7-2.5,2.7-4.9c1.8-7.7-1.2-14.9-4.5-21.8
		C145.8,138.9,143.9,138.7,142,138.4 M289.4,142.1c-1,7.8-2.3,15.5-3.3,23.3c1.4-2.2,2.8-4.4,4.2-6.6c-1.1,3.5-2.6,6.8-4,10.1
		c0.6,0,1.8-0.1,2.4-0.1c1.1-2.7,2.2-5.4,3.4-8.1c-0.4,2.8-0.8,5.6-1.2,8.4c9.1-8.5,2.2-19.6,2.9-29.8
		C292.4,140.3,290.9,141.2,289.4,142.1 M211.2,167c2.6-2.1,2-5.7,2.6-8.7c0.4,2.7,0.8,5.5,1.3,8.3c1.4-3.6,2.1-7.4,3-11.1
		c0.3,3.7,0,7.4-0.5,11.2c4.8-6.9,1.1-15.8,4.5-23.3C213.2,148.3,210.4,157.3,211.2,167 M130.5,147.3c-0.1,1.8-0.1,3.6-0.2,5.4
		c-7.6-4.6-5.1,12-5.1,16.6c0.8-2,1.5-4,2.3-6.1c0.1,2.4,0.1,4.8,0.1,7.2C130.3,163.3,132.5,154,130.5,147.3 M255,151.1
		c-2.7,3.6-5.9,6.7-9.9,8.8c4.6-0.3,3.8,4.6,3,7.7c1.2-2.3,2.2-4.8,3.2-7.2c-0.1,2.3-0.3,4.7-0.4,7c0.8-2.3,1.5-4.6,2.4-6.9
		c0.1,2.4,0.2,4.8,0.3,7.1c1.2-2.9,2.3-5.8,3.3-8.7c-0.3,2.8-0.6,5.5-0.9,8.3c0.7-0.2,2.2-0.6,2.9-0.8c0.2-2.5,0.5-5,0.8-7.5
		c0.6,2.8,0.9,5.7,1.4,8.5c1.6-3.7,2.8-7.6,4.3-11.4c-0.1,3.8-0.9,7.6-1.7,11.3c1.7-2.5,3.1-5,4.5-7.6c0,0.9,0,2.7-0.1,3.6
		c1.7-1.4,2-4.1,3.2-5.9c-0.4,2.7-1,5.3-1.4,7.9c1.6-2.2,2.8-4.6,4.6-6.7c-1.2,3.1-2.6,6.2-4,9.2c0.9,0,2.7,0,3.6,0
		c0.8-2.4,1.6-4.8,2.5-7.1c-0.1,2.6-0.3,5.2-0.3,7.8c5.1-6.3,2.8-14.4,2.9-21.7C271.2,149.4,263.1,150.7,255,151.1 M99.1,155.8
		c-0.7,1.9-1.3,3.8-3,5c-0.1,3.9-0.1,7.9,1,11.7c0.3-2.3,0.5-4.7,0.7-7.1c0.6,2.4,1.3,4.8,1.8,7.2c0.7-0.1,2-0.3,2.7-0.4
		c-0.5-1.7-1-3.4-1.4-5.1c1.4,1.7,2.8,3.5,4.2,5.2c0.1-2.6,0.1-5.1,0.3-7.7c1,2.5,1.7,5.1,2.5,7.7c0.7-2.1,1.4-4.2,2.1-6.3
		c0.2,2,0.4,4,0.6,6c0.5-2.5,0.9-5,1.4-7.5c0.3,2,0.6,4,0.9,6l1.5-0.3c-0.5-3.8-1.1-7.5-1.5-11.2c-1.2-0.1-2.4-0.1-3.6-0.2
		c-0.6-1.1-1.2-2.2-1.8-3.3c-0.8,2-1.6,3.9-2.4,5.9C102.1,160.8,100.3,158.4,99.1,155.8 M116.9,157.9c0.4,3.7,1.2,7.4,0.8,11.1
		c0.2-0.6,0.7-1.9,1-2.5c0.3,1.1,0.7,3.4,1,4.6c1.7-5,1.2-10.2-0.1-15.2C119,156.4,117.6,157.4,116.9,157.9 M226.7,158
		c-0.3,2.8-0.5,5.5-0.6,8.3c0.5,0,1.6,0,2.2,0c-0.2-3-0.4-6.1-0.6-9.1C226.8,157.3,226.4,157.6,226.7,158 M235.7,160.1
		C231.5,163.9,238.7,163.7,235.7,160.1 M239.3,162.2c0.6,0.1,1.8,0.3,2.4,0.4c1.7,0.8-0.7,2.5-0.8,3.8c0.5,0.1,1.6,0.3,2.1,0.4
		c0.2-1.9,0.3-3.9,0.5-5.8c0.7,2.1,1.3,4.2,2,6.3c0.3-0.8,0.8-2.5,1-3.3c-0.9-1.2-1.9-2.5-2.8-3.7
		C242.4,161.2,240.8,161.8,239.3,162.2 M87.9,162.2c0.3,1.8,0.6,3.6,1,5.4c-0.5,1.4-0.6,3-0.9,4.5c0.6,0.6,1.1,1.2,1.7,1.9
		c-0.3-2.1-0.5-4.2-0.7-6.3c1.6,1.7,2.2,3.9,3.1,6c0.4-4.5,0.1-9.1-1-13.5C90.1,160.9,89,161.5,87.9,162.2 M237.6,161.2
		C233.2,166.4,239.9,165.8,237.6,161.2 M301.9,164.2c0.7-0.6,2.1-1.7,2.8-2.3c-0.6,2.9-2.4,5.2-3.7,7.8c0.7,0,2,0.1,2.7,0.1
		c0.8-2.1,1.6-4.2,2.4-6.3c0,2.3-0.2,4.6-0.3,6.9c1.3-2,2.5-4.1,3.7-6.2c-2.1-1.1-4.3-2.2-6.4-3.4
		C302.4,161.8,302.1,162.9,301.9,164.2 M268.1,163.4C263.5,165.2,269.2,168.7,268.1,163.4 M340.6,166.5c0.7-0.2,2.1-0.5,2.7-0.7
		c-1,2.7-1.9,5.4-2.8,8.1c1.4-1.4,2.8-2.8,4.2-4.2c-0.5,1.6-1,3.2-1.5,4.9c1-1.5,2.2-3,3.1-4.6c-0.3-0.7-0.9-2.1-1.2-2.7l0.9-0.2
		c0,0.6,0.1,2,0.2,2.6c2-1.8,0.6-4.7,0.9-7C344.9,163.9,342.8,165.2,340.6,166.5 M220.2,164.3C218.7,167.3,223.6,164.5,220.2,164.3
		 M295.5,164.3C291.2,168.4,298.4,167.8,295.5,164.3 M309.2,168.9C308.7,169.5,308.7,169.5,309.2,168.9
		C314.3,167.2,308.2,162.8,309.2,168.9 M279.5,166C276.1,168.4,282.9,168.1,279.5,166 M315.3,166.4
		C313.8,169.4,318.7,166.6,315.3,166.4 M318.2,166.7c-0.8,1.4-1.6,2.8-2.3,4.1c0.9,0.2,2.6,0.5,3.5,0.6c-0.1-2.1,0.4-2.9,1.5-2.2
		c0.2,0.8,0.5,2.3,0.7,3c0.9-1.6,1.8-3.2,2.8-4.9C322.3,168.4,320.3,167.1,318.2,166.7 M329,173.1c1.8-2,3.3-4.3,4.4-6.8
		C331,167.9,329.8,170.5,329,173.1 M334.5,166.9c-1,2-1.9,4-2.9,6c1.6,0,3.1,0.1,4.7,0.1c0.3-2.1,0.6-4.2,1-6.3
		C336.6,166.7,335.2,166.9,334.5,166.9 M323.9,171.9c1.1-1.2,2.9-0.3,4.3-0.4c-0.1-0.5-0.3-1.5-0.4-2l1.5,0.5c0-0.6,0.1-1.9,0.1-2.6
		c-0.7,0.9-2.1,2.7-2.9,3.6l0.5-3.2C324.6,167.2,324.8,170.5,323.9,171.9 M124.5,169.1C125,169.7,125,169.7,124.5,169.1
		 M346.2,172.2C344.7,175.2,349.6,172.4,346.2,172.2 M389.4,179.1C390,179.7,390,179.7,389.4,179.1 M403.5,180.3
		C399.3,183.3,406.8,182.7,403.5,180.3z"/>
	<path class="st1" d="M189.4,161.3C189.9,161.8,189.9,161.8,189.4,161.3z"/>
	<path class="st0" d="M412.2,178.7C410.9,175.6,415.5,178.8,412.2,178.7z"/>
</g>
</svg>
