<svg id="Layer_1" data-name="Layer 1" xmlns="http://www.w3.org/2000/svg" viewBox="0 0 104.87 87.99"><defs><style>.cls-1{fill:#a2816c;}</style></defs><path class="cls-1" d="M99.75,53c-.72.89-1.44,1.77-2.15,2.66a25.51,25.51,0,0,1-5.54,4.88,3,3,0,0,0-1.48,2.76c.08,7.88.06,15.76.08,23.63,0,.35.12.78-.29,1s-.6-.17-.84-.35c-1.09-.86-2.17-1.74-3.23-2.64a1.65,1.65,0,0,0-2.52,0c-1,.93-2.06,1.76-3.09,2.64-.67.57-1,.27-1.12-.46s0-1.27,0-1.91q0-6.24,0-12.47c0-.59.29-1.37-.6-1.61-.54-.14-1.89.86-2,1.47a2,2,0,0,0,.53,2.09,6.72,6.72,0,0,1,.58.61c.5.48.88,1.06.29,1.65a1.27,1.27,0,0,1-1.85,0c-.7-.71-1.64-1.35-1.57-2.56a1.5,1.5,0,0,0-.08-.47c-.14-.52-.34-1-1-1.11a.6.6,0,0,0-.69.36,1.33,1.33,0,0,0,.21,1.56,4,4,0,0,1,.94,1.22,1,1,0,0,1-.2,1.22.9.9,0,0,1-1.12,0,4.2,4.2,0,0,1-2.36-3.12c0-.52-.12-1.06-.76-1.21a.69.69,0,0,0-.82.34,1.3,1.3,0,0,0,.33,1.53c.4.52,1.07.83,1,1.66s-.35,1.09-1.13.89c-1-.27-2.64-1.78-2.52-2.78.22-1.93-.76-2.86-2.33-3.45a4.42,4.42,0,0,1-1.86-1.27,3.48,3.48,0,0,0-3-1c-2.33,0-4.6-.56-6.91-.77C51.15,67.8,51,68,51,69.51q0,8.64.05,17.27c0,.39.1.87-.28,1.11s-.7-.24-1-.46c-1-.79-2-1.62-2.93-2.45s-1.55-.92-2.69,0-2.1,1.72-3.16,2.57c-.2.17-.38.47-.7.33S40,87.4,40,87.09c0-.8.06-1.61,0-2.4s-.41-1-1.08-.47c-1.36,1.11-2.71,2.23-4.09,3.31-.25.2-.52.6-.92.39s-.27-.62-.27-1c0-7.91,0-15.83.07-23.75A3.52,3.52,0,0,0,32,59.85a21.24,21.24,0,0,1-8.47-10.53,2.4,2.4,0,0,0-1.2-1.25,10.07,10.07,0,0,1-5.27-6.9,8.13,8.13,0,0,1,1.27-6.28,2.07,2.07,0,0,0,.32-2.21c-.51-1.11-.36-2.72-1.36-3.33S15,29,13.78,28.89c-4.28-.47-8.35-1.45-11.44-4.76A8.59,8.59,0,0,1,0,18.51c0-1,.26-1.4,1.35-1.38,4.19.06,8.39,0,12.58.06,1.29,0,1.44-.76,1.87-1.56s-.3-1.05-.66-1.41c-3-2.94-4.32-6.38-3.16-10.54A4.68,4.68,0,0,1,15.79.12c.36-.07,1.06-.35,1,.33s.58,1.66-.52,1.94A3,3,0,0,0,14,5.12a8.2,8.2,0,0,0,2.68,7.35c.57.56.85.24,1.25-.17a16.17,16.17,0,0,1,21.08-2,12.05,12.05,0,0,1,2.46,2.27c.32.39.6.55,1.1.21a8.23,8.23,0,0,0,2.84-8.27,2.73,2.73,0,0,0-2.09-2.07c-1.16-.25-.6-1.25-.61-1.89s.7-.47,1.11-.39A4.78,4.78,0,0,1,47.7,4.07c.94,4.18-.45,7.62-3.6,10.41-.44.39-1,.62-.57,1.45s.57,1.26,1.57,1.25c4.23-.06,8.47,0,12.71-.05.91,0,1.49.14,1.38,1.21-.09.77.31.94,1,.91a60.52,60.52,0,0,1,12.89.8C82,21.7,90.35,24.71,96.87,31.4a18.65,18.65,0,0,1,5.5,13.73c-.06,6.39-.18,12.79-.12,19.19a4.76,4.76,0,0,0,1.63,3.92,3.22,3.22,0,0,1,.61,3.89,3.44,3.44,0,0,1-3,2.19,4,4,0,0,1-3.75-2.46,3.23,3.23,0,0,1,1-3.88,3.36,3.36,0,0,0,1.4-3.15c-.1-3.91,0-7.82,0-11.73ZM42.27,68.7h0c0,1.52,0,3,0,4.56,0,.93.35,1.32,1.26,1.31,1.28,0,2.56,0,3.83,0s1.55-.3,1.53-1.57c0-2.08-.07-4.15-.09-6.23,0-1.58.22-1.78,1.73-1.53a51.68,51.68,0,0,0,7.34,1c2.83.06,5.67,0,8.5,0a45,45,0,0,0,9.34-1.3,17.13,17.13,0,0,0,4.8-1.44c.8-.44,1.25-.08,1.24.89,0,2.88,0,5.76,0,8.64,0,1,.45,1.47,1.43,1.46,1.19,0,2.39,0,3.59,0,1.4,0,1.56-.15,1.56-1.6,0-3.83,0-7.67-.06-11.51A1.65,1.65,0,0,1,89,59.85a29.47,29.47,0,0,0,6-4.69c5.78-5.87,6.85-13.52,1.8-20.26A29,29,0,0,0,85,26.05a55.47,55.47,0,0,0-25.82-4.44,1.19,1.19,0,0,0-1.1.75,9.28,9.28,0,0,1-2.65,3.06,18.22,18.22,0,0,1-9.92,3.45c-4.1.33-4.09.28-5.15,4.25a1.45,1.45,0,0,0,.2,1.34C43.82,39,42.25,44.7,37.48,47.71a14.78,14.78,0,0,1-10.11,2c-.31,0-.7-.2-.91.08s.09.66.26,1C30,56.52,35.14,59.89,41,62.4a1.76,1.76,0,0,1,1.29,1.86C42.25,65.74,42.27,67.22,42.27,68.7ZM9.82,19.47h0c-2.08,0-4.16,0-6.23,0-1,0-1.18.33-.77,1.2a8.64,8.64,0,0,0,4.3,4.15,25.56,25.56,0,0,0,11,2A1.33,1.33,0,0,1,19.61,28c.3,1.11.69,2.2,1,3.31.17.57.45.64,1,.33a14.64,14.64,0,0,1,16,0c.59.34.83.25,1-.39.31-1.07.75-2.11,1-3.2.21-.92.67-1.17,1.59-1.17a28.29,28.29,0,0,0,8.63-1.14c2.69-.84,5.08-2.13,6.45-4.78.62-1.19.46-1.44-.89-1.44-4,0-8,0-12,0-.91,0-1.39-.15-1.54-1.15a7,7,0,0,0-1.21-3C37.51,10.78,33,9.07,27.74,9.79s-9.23,3.43-10.5,9c-.15.67-.58.65-1.07.65ZM29.05,31.63a11.29,11.29,0,0,0-6.33,2c-4.58,3.1-4.67,8.51-.22,11.77a12.59,12.59,0,0,0,14.27,0c4.07-3,4.3-7.78.47-11.11C35.06,32.36,32.45,31.63,29.05,31.63ZM36,68.7c0,1.12,0,2.24,0,3.36,0,2.65,0,2.62,2.67,2.56.9,0,1.33-.35,1.32-1.26,0-2.68,0-5.36,0-8a1.05,1.05,0,0,0-.59-1.08c-.64-.32-1.27-.66-1.92-1-1.17-.53-1.45-.35-1.46,1S36,67.22,36,68.7Zm12.78,11c0-.28,0-.56,0-.84.06-1.69-.18-1.93-1.89-1.93l-3.11-.05c-1.19,0-1.61.33-1.62,1.53,0,1,.09,2.07.11,3.11,0,.48-.41,1.07.21,1.4s1-.19,1.41-.59c1.41-1.39,1.84-1.38,3.2.06a3.72,3.72,0,0,0,.3.37,1,1,0,0,0,1,.23c.41-.15.45-.53.41-.9A10.07,10.07,0,0,1,48.82,79.67Zm32.92.44c0,.64-.08,1.27-.1,1.91,0,.36,0,.76.35,1a1,1,0,0,0,1-.22,5.45,5.45,0,0,0,.6-.58C84.77,81,85,81,86.3,82a5.48,5.48,0,0,1,.6.58c.26.26.52.54.93.39s.44-.53.44-.9c0-1.28,0-2.56,0-3.84,0-.88-.4-1.35-1.29-1.34s-1.6.07-2.39,0C81.38,76.77,81.63,77,81.74,80.11ZM71.33,70.77a11.24,11.24,0,0,0,7.59-2.54c.4-.29.83-.58.56-1.15s-.79-.42-1.26-.31a61.67,61.67,0,0,1-11.29,1.75c-.37,0-.76,0-.85.48a.65.65,0,0,0,.6.77C68.3,70.09,69.79,71.07,71.33,70.77ZM36,80h0v1.91c0,.41,0,.84.42,1s.73-.18,1-.44c.52-.53,1-.9,1.69-.19s.84,0,.86-.49c0-1.32,0-2.63,0-4,0-.67-.38-1-1.06-1-2.83-.23-3-.12-2.92,2.77C36.05,79.79,36,79.91,36,80Zm65.41-8.11a1.28,1.28,0,0,0,1.15-1.32,1.51,1.51,0,0,0-1.33-1.45c-.7-.14-1.43.64-1.42,1.44S100.36,71.87,101.45,71.92Z"/><path class="cls-1" d="M81.37,34.11a6.37,6.37,0,0,1-4.81,6.25,13.33,13.33,0,0,1-1.87.43c-3,.53-4.37,2-4.46,5.11a10.76,10.76,0,0,1-.92,4.54,6.8,6.8,0,0,1-7,3.72,5.94,5.94,0,0,1-5.53-4.22,6.64,6.64,0,0,1-.18-2.73,6.93,6.93,0,0,0-2.93-6.57,15.27,15.27,0,0,1-2.43-2.12,5.37,5.37,0,0,1-1.26-4.88c1.07-5.26,5.15-7.12,9.42-7.47.56-.05,1,.07.9.74s.39,1.47-.76,1.57a11.9,11.9,0,0,0-3.36.78,6.45,6.45,0,0,0-4,5.15A2.75,2.75,0,0,0,53,37c.72.69,1.5,1.32,2.27,1.95A8.73,8.73,0,0,1,58.88,47c-.36,3.28,1.48,4.67,3.79,4.85a4.65,4.65,0,0,0,5.1-4.31,26.36,26.36,0,0,1,.47-4.16c.85-2.88,2.93-4.35,5.77-4.91a1.79,1.79,0,0,1,.24,0c3.33-.42,5-2.12,4.76-5-.23-3.16-3-5.95-5.88-5.85a4.42,4.42,0,0,0-3.32,1.67,13.89,13.89,0,0,1-2.11,2.29,3.56,3.56,0,0,1-4.52.14c-.6-.41-.5-.8-.12-1.16s.37-1.51,1.31-.85a1.54,1.54,0,0,0,2.3-.35c.38-.41.74-.84,1.09-1.27a7,7,0,0,1,10.72-.63A8.83,8.83,0,0,1,81.37,34.11Z"/><path class="cls-1" d="M84.14,46.26c.13,1.69-.36,3-.4,4.44-.08,2.18.8,3.29,3,3.55,2,.23,3.73-.1,4.83-2,.55-1,1.41-.29,2-.12s.19.84,0,1.22c-1.08,2.48-5.06,3.93-7.94,3.09-4.12-1.2-4.59-3.93-4.15-6.81a18.74,18.74,0,0,0,.32-3.81,2.48,2.48,0,0,0-3.09-2.45c-1.29.37-1.47-.67-2-1.25-.33-.39.23-.57.51-.73a4.91,4.91,0,0,1,6.85,3.76A9.13,9.13,0,0,1,84.14,46.26Z"/><path class="cls-1" d="M35.55,22.85c.83.08,1.32.49,1.35,1.29a1.2,1.2,0,0,1-1.23,1.34,1.22,1.22,0,0,1-1.37-1.33A1.28,1.28,0,0,1,35.55,22.85Z"/><path class="cls-1" d="M24.9,24.21a1.26,1.26,0,0,1-1.33,1.26,1.18,1.18,0,0,1-1.27-1.29,1.2,1.2,0,0,1,1.36-1.3C24.5,22.92,24.81,23.47,24.9,24.21Z"/><path class="cls-1" d="M35.7,40.9a1.22,1.22,0,0,1-1.39-1.21A1.29,1.29,0,1,1,35.7,40.9Z"/><path class="cls-1" d="M23.69,40.9a1.21,1.21,0,0,1-1.38-1.23,1.29,1.29,0,1,1,2.58-.06A1.2,1.2,0,0,1,23.69,40.9Z"/></svg>